<svg width="50" height="50" viewBox="0 0 50 50" fill="none" xmlns="http://www.w3.org/2000/svg">
<path d="M30.7291 24.5834L39.0625 19.7917L30.7291 15L22.3958 19.7917L30.7291 24.5834ZM30.7291 30.9375L36.4583 27.6042V23.2292L30.7291 26.5625L25 23.2292V27.6042L30.7291 30.9375ZM8.33329 8.33337H41.6666C42.8125 8.33337 43.7937 8.74171 44.6104 9.55837C45.4257 10.3737 45.8333 11.3542 45.8333 12.5V37.5C45.8333 38.6459 45.4257 39.6271 44.6104 40.4438C43.7937 41.2591 42.8125 41.6667 41.6666 41.6667H31.25V37.5H41.6666V12.5H8.33329V14.5834H4.16663V12.5C4.16663 11.3542 4.57496 10.3737 5.39163 9.55837C6.2069 8.74171 7.18746 8.33337 8.33329 8.33337ZM4.16663 41.6667H10.4166C10.4166 39.9306 9.80899 38.4549 8.59371 37.2396C7.37843 36.0243 5.90274 35.4167 4.16663 35.4167V41.6667ZM14.5833 41.6667H18.75C18.75 37.6042 17.3354 34.1577 14.5062 31.3271C11.6757 28.498 8.22913 27.0834 4.16663 27.0834V31.25C7.04857 31.25 9.50482 32.2653 11.5354 34.2959C13.5673 36.3278 14.5833 38.7848 14.5833 41.6667ZM4.16663 18.75V22.9167C6.77079 22.9167 9.21038 23.4112 11.4854 24.4C13.759 25.3903 15.7382 26.7271 17.4229 28.4105C19.1062 30.0952 20.443 32.075 21.4333 34.35C22.4222 36.6237 22.9166 39.0625 22.9166 41.6667H27.0833C27.0833 38.507 26.484 35.5382 25.2854 32.7605C24.0882 29.9827 22.4479 27.5521 20.3645 25.4688C18.2812 23.3855 15.8507 21.7452 13.0729 20.548C10.2951 19.3493 7.32635 18.75 4.16663 18.75Z" fill="#EBEAEC"/>
</svg>
