<svg width="70" height="70" viewBox="0 0 70 70" fill="none" xmlns="http://www.w3.org/2000/svg">
<path d="M41.0681 43.0937C41.7468 44.4695 42.7998 45.6258 44.1061 46.4299C45.4125 47.234 46.9192 47.6532 48.4531 47.6394C51.555 47.6394 53.5369 46.0884 53.5369 43.9469C53.5369 41.3809 51.5003 40.4709 48.0878 38.9769L46.2153 38.1741C40.8144 35.8728 37.2247 32.9897 37.2247 26.8953C37.2247 21.28 41.5034 17.0078 48.1884 17.0078C50.3581 16.8504 52.5261 17.336 54.4212 18.404C56.3164 19.472 57.8547 21.075 58.8438 23.0125L53.0141 26.7553C52.6324 25.7952 51.9675 24.974 51.1079 24.4008C50.2483 23.8276 49.2346 23.5295 48.2016 23.5462C47.7513 23.5009 47.2965 23.55 46.8662 23.6902C46.4359 23.8304 46.0396 24.0588 45.7024 24.3607C45.3653 24.6627 45.0948 25.0315 44.9082 25.4438C44.7215 25.8561 44.6228 26.3028 44.6184 26.7553C44.6184 29.0019 46.0097 29.9097 49.2122 31.3009L51.0847 32.1016C57.4459 34.8294 61.0356 37.6097 61.0356 43.8616C61.0356 50.6012 55.7419 54.2937 48.6303 54.2937C45.8602 54.4699 43.0983 53.8408 40.6778 52.4823C38.2573 51.1238 36.2816 49.0939 34.9891 46.6375L41.0681 43.0937ZM14.6256 43.75C15.8025 45.8369 16.8722 47.6 19.4381 47.6C21.8969 47.6 23.45 46.6375 23.45 42.8969V17.4453H30.9356V43.0019C30.9356 50.7522 26.39 54.2806 19.7575 54.2806C17.4147 54.4074 15.0883 53.8221 13.0845 52.6015C11.0807 51.381 9.49336 49.5824 8.53125 47.4425L14.6256 43.75Z" fill="#181818"/>
</svg>
