<svg width="70" height="70" viewBox="0 0 70 70" fill="none" xmlns="http://www.w3.org/2000/svg">
<path d="M6.27083 48.9417H10.85C10.9489 48.9427 11.0448 48.9077 11.1199 48.8434C11.195 48.779 11.2442 48.6896 11.2583 48.5917L12.2792 43.2833H15.8375C17.327 43.3206 18.8132 43.1238 20.2417 42.7C21.399 42.3172 22.4556 41.6793 23.3333 40.8333C24.1216 40.1247 24.7826 39.2861 25.2875 38.3542C25.7869 37.4424 26.1412 36.4584 26.3375 35.4375C26.6474 34.3673 26.7006 33.2391 26.4928 32.1445C26.2851 31.0499 25.8221 30.0197 25.1417 29.1375C24.3532 28.3363 23.399 27.7175 22.3459 27.3245C21.2928 26.9315 20.1664 26.7738 19.0458 26.8625H10.2958C10.1909 26.8672 10.0906 26.9072 10.0112 26.976C9.93178 27.0448 9.87793 27.1384 9.85833 27.2417L5.83333 48.4167C5.78875 48.5391 5.78875 48.6734 5.83333 48.7958C5.88899 48.8538 5.95789 48.8973 6.0341 48.9227C6.11031 48.9481 6.19155 48.9546 6.27083 48.9417ZM14.5833 30.975H17.5C18.0549 30.9004 18.6191 30.9368 19.1598 31.082C19.7006 31.2272 20.2071 31.4783 20.65 31.8208C21.1458 32.3458 21.2333 33.3375 20.9708 34.7375C20.8246 35.99 20.2349 37.1488 19.3083 38.0042C18.1532 38.7356 16.7922 39.0732 15.4292 38.9667H13.0958L14.5833 30.975ZM43.1667 28.2042C41.5877 27.0433 39.6325 26.5129 37.6833 26.7167H34.2125L35.175 21.5833C35.2034 21.5242 35.2182 21.4594 35.2182 21.3937C35.2182 21.3281 35.2034 21.2633 35.175 21.2042C35.0714 21.1662 34.9578 21.1662 34.8542 21.2042H30.275C30.1761 21.2031 30.0802 21.2381 30.0051 21.3024C29.93 21.3668 29.8808 21.4563 29.8667 21.5542L25.8417 42.7583C25.8135 42.8124 25.7989 42.8724 25.7989 42.9333C25.7989 42.9943 25.8135 43.0543 25.8417 43.1083C25.8761 43.1622 25.9235 43.2064 25.9796 43.237C26.0357 43.2676 26.0986 43.2836 26.1625 43.2833H30.6542C30.7576 43.2836 30.8573 43.2446 30.9331 43.1742C31.0089 43.1038 31.0551 43.0073 31.0625 42.9042L33.3083 31.0333H36.5458C37.8583 31.0333 38.325 31.325 38.4708 31.5C38.5896 31.7866 38.6507 32.0939 38.6507 32.4042C38.6507 32.7144 38.5896 33.0217 38.4708 33.3083L36.6917 42.7583C36.6635 42.8124 36.6489 42.8724 36.6489 42.9333C36.6489 42.9943 36.6635 43.0543 36.6917 43.1083C36.7279 43.1604 36.7757 43.2033 36.8314 43.2337C36.8871 43.2641 36.9491 43.2811 37.0125 43.2833H41.5625C41.6675 43.2786 41.7678 43.2386 41.8472 43.1698C41.9266 43.101 41.9804 43.0074 42 42.9042L43.8667 32.9875C44.1678 32.1967 44.2616 31.342 44.1391 30.5047C44.0166 29.6675 43.6818 28.8755 43.1667 28.2042ZM56.35 26.7167H47.2208C47.1672 26.7127 47.1133 26.7194 47.0622 26.7363C47.0111 26.7532 46.9639 26.7801 46.9233 26.8153C46.8826 26.8505 46.8493 26.8935 46.8253 26.9416C46.8013 26.9897 46.787 27.0422 46.7833 27.0958L42.525 48.4167C42.4985 48.4763 42.4848 48.5409 42.4848 48.6062C42.4848 48.6716 42.4985 48.7361 42.525 48.7958C42.5642 48.8425 42.6134 48.8799 42.6689 48.9051C42.7244 48.9304 42.7849 48.9429 42.8458 48.9417H47.6C47.7038 48.9501 47.8069 48.9186 47.8882 48.8535C47.9696 48.7885 48.023 48.6948 48.0375 48.5917L49.1167 43.2833H52.8208C54.3581 43.3171 55.8918 43.1205 57.3708 42.7C58.6443 42.3457 59.821 41.7075 60.8125 40.8333C61.6267 40.1267 62.3168 39.2887 62.8542 38.3542C63.3629 37.4437 63.7269 36.4598 63.9333 35.4375C64.2513 34.3663 64.3059 33.2342 64.0926 32.1374C63.8794 31.0406 63.4045 30.0115 62.7083 29.1375C61.8837 28.3022 60.8892 27.6538 59.7922 27.2361C58.6953 26.8185 57.5214 26.6413 56.35 26.7167ZM58.1583 34.7958C57.9839 36.0588 57.3631 37.2176 56.4083 38.0625C55.2114 38.7972 53.8127 39.1341 52.4125 39.025H50.0792L51.6542 30.975H54.5708C55.7367 30.8321 56.9137 31.1341 57.8667 31.8208C58.3333 32.3458 58.3333 33.3375 58.1583 34.7958Z" fill="#181818"/>
</svg>
