<svg width="70" height="70" viewBox="0 0 70 70" fill="none" xmlns="http://www.w3.org/2000/svg">
<path d="M18.7294 33.3725C23.9532 35.2086 29.464 36.0925 35 35.9822C40.5361 36.0918 46.047 35.2072 51.2706 33.3703C55.3481 31.78 56.7941 30.0125 56.7941 28.9953V21.2188C55.3685 22.1734 53.8391 22.9631 52.2353 23.5725C46.7085 25.5515 40.8697 26.5164 35 26.4206C29.1308 26.5146 23.2926 25.5513 17.7647 23.5769C16.1601 22.9674 14.6305 22.1762 13.2059 21.2188V28.9844C13.2059 30.0213 14.6562 31.78 18.7294 33.3725ZM18.7294 48.0397C20.5748 48.7435 22.4777 49.2858 24.4169 49.6606C27.9038 50.3352 31.4484 50.6671 35 50.6516C38.5515 50.6678 42.0961 50.3366 45.5831 49.6628C47.5222 49.288 49.4252 48.7456 51.2706 48.0419C55.3481 46.4516 56.7941 44.6841 56.7941 43.6669V36.2513C55.6157 36.9603 54.3772 37.5642 53.0928 38.0559C47.2867 40.1117 41.1583 41.1068 35 40.9937C28.8411 41.1033 22.7126 40.1044 16.9072 38.045C15.6234 37.552 14.385 36.9482 13.2059 36.2403V43.6625C13.2059 44.6819 14.6562 46.4428 18.7294 48.0397V48.0397ZM35 65.625C47.0312 65.625 56.7941 61.81 56.7941 57.1069V50.9009C55.7221 51.5471 54.5991 52.1046 53.4362 52.5678L53.0928 52.7056C47.2878 54.7674 41.1593 55.7685 35 55.6609C28.8404 55.7716 22.7114 54.7705 16.9072 52.7056C16.7891 52.6619 16.6753 52.6116 16.5637 52.5678C15.4009 52.1046 14.2779 51.5471 13.2059 50.9009V57.1069C13.2059 61.81 22.9687 65.625 35 65.625Z" fill="#181818"/>
<path d="M35 21.4113C47.0365 21.4113 56.7941 17.5976 56.7941 12.8931C56.7941 8.18869 47.0365 4.375 35 4.375C22.9635 4.375 13.2059 8.18869 13.2059 12.8931C13.2059 17.5976 22.9635 21.4113 35 21.4113Z" fill="#181818"/>
</svg>
