<svg width="72" height="83" viewBox="0 0 72 83" fill="none" xmlns="http://www.w3.org/2000/svg">
<path fill-rule="evenodd" clip-rule="evenodd" d="M49.7857 0.802447C50.0399 0.937208 50.2651 1.1208 50.4482 1.3427C50.6314 1.56461 50.769 1.82047 50.8531 2.09563C50.9372 2.37079 50.9662 2.65984 50.9385 2.94623C50.9107 3.23262 50.8267 3.51072 50.6913 3.7646L18.7395 63.8572C18.4668 64.3701 18.0015 64.7536 17.446 64.9235C16.8905 65.0933 16.2903 65.0355 15.7774 64.7628C15.2645 64.4901 14.8809 64.0248 14.7111 63.4693C14.5413 62.9138 14.5991 62.3135 14.8718 61.8006L46.8236 1.70807C46.9583 1.45385 47.1419 1.22871 47.3638 1.04555C47.5857 0.862386 47.8416 0.724804 48.1167 0.640679C48.3919 0.556555 48.6809 0.527541 48.9673 0.5553C49.2537 0.583059 49.5318 0.667044 49.7857 0.802447V0.802447Z" fill="#222222"/>
<path fill-rule="evenodd" clip-rule="evenodd" d="M55.7857 17.8024C56.0399 17.9372 56.2651 18.1208 56.4482 18.3427C56.6314 18.5646 56.769 18.8205 56.8531 19.0956C56.9372 19.3708 56.9662 19.6598 56.9385 19.9462C56.9107 20.2326 56.8267 20.5107 56.6913 20.7646L24.7395 80.8572C24.4668 81.3701 24.0015 81.7536 23.446 81.9235C22.8905 82.0933 22.2903 82.0355 21.7774 81.7628C21.2645 81.4901 20.8809 81.0248 20.7111 80.4693C20.5413 79.9138 20.5991 79.3135 20.8718 78.8006L52.8236 18.7081C52.9583 18.4538 53.1419 18.2287 53.3638 18.0455C53.5857 17.8624 53.8416 17.7248 54.1167 17.6407C54.3919 17.5566 54.6809 17.5275 54.9673 17.5553C55.2537 17.5831 55.5318 17.667 55.7857 17.8024V17.8024Z" fill="#222222"/>
</svg>
