<svg width="117" height="100" viewBox="0 0 117 100" fill="none" xmlns="http://www.w3.org/2000/svg">
<g clip-path="url(#clip0_227_45)">
<path d="M68.8808 30H76.4V33.1442H72.025V36.2883H76.4V39.4325H68.8808V30ZM77.9021 30H85.4242V32.7358H81.0492V33.2813H85.4242V39.5696H77.9021V36.6996H82.2771V36.1513H77.9021V30ZM86.9292 30H94.4454V32.7358H90.0704V33.2813H94.4454V39.5696H86.9292V36.6996H91.3042V36.1513H86.9292V30Z" fill="#181818"/>
<path fill-rule="evenodd" clip-rule="evenodd" d="M81.9738 100L61.7204 94.3767L55.75 43.7579H108.25L102.283 94.3709L81.9738 100ZM67.5538 66.6713L68.1108 72.8779H89.6271L88.9067 80.9279L81.9825 82.8004H81.9767L75.0642 80.9338L74.6208 75.9842H68.3879L69.2571 85.7317L81.9738 89.2609L94.7108 85.7317L96.2625 68.3367L96.4142 66.6713L97.5342 54.1034H66.4367L67.0025 60.3129H90.7325L90.1667 66.6713H67.5538V66.6713Z" fill="#181818"/>
</g>
<g clip-path="url(#clip1_227_45)">
<path d="M14.8167 0H17.9725V3.11792H20.86V0H24.0158V9.43833H20.86V6.27958H17.9725V9.43833H14.8196V0H14.8167ZM28.1633 3.12958H25.3867V0H34.0987V3.12958H31.3192V9.43833H28.1633V3.12958V3.12958ZM35.4812 0H38.7713L40.7954 3.31625L42.8167 0H46.1067V9.43833H42.9654V4.76L40.7954 8.11708H40.74L38.5671 4.76292V9.43833H35.4812V0V0ZM47.6758 0H50.8346V6.32042H55.2679V9.44125H47.6758V0V0Z" fill="#181818"/>
<path fill-rule="evenodd" clip-rule="evenodd" d="M14.7175 64.3767L8.75 13.7579H61.25L55.2796 64.3709L34.9708 70L14.7175 64.3767ZM26.7837 36.6684L26.2179 30.31H49.9742L50.5283 24.1034H19.4367L21.1108 42.8779H42.6271L41.9067 50.9279L34.9825 52.8004H34.9767L28.0642 50.9338L27.6208 45.9842H21.385L22.2542 55.7317L34.9708 59.2609L47.7079 55.7317L49.2596 38.3367L49.4113 36.6713H26.7837V36.6684Z" fill="#181818"/>
</g>
<defs>
<clipPath id="clip0_227_45">
<rect width="70" height="70" fill="white" transform="translate(47 30)"/>
</clipPath>
<clipPath id="clip1_227_45">
<rect width="70" height="70" fill="white"/>
</clipPath>
</defs>
</svg>
