<svg width="70" height="70" viewBox="0 0 70 70" fill="none" xmlns="http://www.w3.org/2000/svg">
    <path
        d="M46.5938 13.125C46.4197 13.125 46.2528 13.1941 46.1297 13.3172C46.0066 13.4403 45.9375 13.6072 45.9375 13.7813V25.8059L43.2119 24.2156C43.0436 24.1161 42.8517 24.0636 42.6562 24.0636C42.4608 24.0636 42.2689 24.1161 42.1006 24.2156L35.5513 28.035C35.3838 28.1317 35.2447 28.2707 35.148 28.4381C35.0512 28.6055 35.0002 28.7954 35 28.9887V36.6362C35 37.03 35.21 37.3931 35.5513 37.59L42.1006 41.4094C42.2689 41.5089 42.4608 41.5614 42.6562 41.5614C42.8517 41.5614 43.0436 41.5089 43.2119 41.4094L49.7612 37.59C49.9287 37.4933 50.0678 37.3543 50.1645 37.1869C50.2613 37.0195 50.3123 36.8296 50.3125 36.6362V15.8156C50.312 15.6248 50.2616 15.4375 50.1665 15.2722C50.0713 15.1068 49.9347 14.9692 49.77 14.8728L46.9197 13.2147C46.8216 13.1567 46.7099 13.1258 46.5959 13.125H46.5938ZM25.1562 24.0669C24.9612 24.0666 24.7695 24.1179 24.6006 24.2156L18.0513 28.035C17.8838 28.1317 17.7447 28.2707 17.648 28.4381C17.5512 28.6055 17.5002 28.7954 17.5 28.9887V36.6362C17.5 37.03 17.71 37.3931 18.0513 37.59L24.6006 41.4094C24.9441 41.6063 25.3662 41.6063 25.7119 41.4094L32.2612 37.59C32.4287 37.4933 32.5678 37.3543 32.6645 37.1869C32.7613 37.0195 32.8123 36.8296 32.8125 36.6362V28.9887C32.8128 28.7953 32.7619 28.6052 32.6651 28.4378C32.5683 28.2703 32.429 28.1313 32.2612 28.035L25.7119 24.2156C25.543 24.1179 25.3513 24.0666 25.1562 24.0669ZM60.1562 24.0669C59.9611 24.0659 59.7692 24.1173 59.6006 24.2156L53.0513 28.035C52.8838 28.1317 52.7447 28.2707 52.648 28.4381C52.5512 28.6055 52.5002 28.7954 52.5 28.9887V36.6362C52.5 37.03 52.71 37.3931 53.0513 37.59L59.4038 41.4291C59.5716 41.5309 59.764 41.5856 59.9604 41.5871C60.1567 41.5886 60.3499 41.5371 60.5194 41.4378L63.6431 39.6222C63.7166 39.5789 63.7775 39.5172 63.8198 39.4431C63.8622 39.3691 63.8844 39.2853 63.8844 39.2C63.8844 39.1147 63.8622 39.0309 63.8198 38.9569C63.7775 38.8828 63.7166 38.8211 63.6431 38.7778L56.875 34.79V30.8656L60.1562 28.9559L63.4375 30.8656V33.6C63.4375 33.9653 63.7437 34.0222 63.9494 33.8997C65.0552 33.254 66.1621 32.6102 67.27 31.9681C67.4348 31.872 67.5716 31.7343 67.6668 31.5689C67.7619 31.4035 67.8122 31.2161 67.8125 31.0253V28.9909C67.8128 28.7975 67.7619 28.6074 67.6651 28.4399C67.5683 28.2725 67.429 28.1335 67.2612 28.0372L60.7119 24.2178C60.5432 24.1197 60.3514 24.0684 60.1562 24.0691V24.0669ZM7.65625 24.0712C7.46107 24.0703 7.2692 24.1216 7.10063 24.22L0.55125 28.035C0.383607 28.1326 0.244479 28.2724 0.147751 28.4405C0.0510237 28.6086 7.86007e-05 28.7992 0 28.9931V38.7559C0 39.2328 0.51625 39.5281 0.9275 39.2897L3.8325 37.5987C3.99748 37.5022 4.13435 37.3642 4.22952 37.1984C4.32468 37.0327 4.37484 36.8449 4.375 36.6538V30.8722L7.65625 28.9581L10.9375 30.8722V36.6538C10.9378 36.8446 10.9881 37.032 11.0832 37.1974C11.1784 37.3628 11.3152 37.5004 11.48 37.5966L14.385 39.2897C14.4788 39.3444 14.5854 39.3733 14.6939 39.3736C14.8025 39.3739 14.9092 39.3455 15.0033 39.2914C15.0974 39.2372 15.1755 39.1592 15.2298 39.0652C15.2841 38.9712 15.3126 38.8645 15.3125 38.7559V28.9931C15.3124 28.7992 15.2615 28.6086 15.1647 28.4405C15.068 28.2724 14.9289 28.1326 14.7613 28.035L8.21187 24.22C8.0433 24.1216 7.85143 24.0703 7.65625 24.0712ZM42.6562 28.9538L45.9375 30.8678V34.7572L42.6562 36.6712L39.375 34.7572V30.8656L42.6562 28.9516V28.9538ZM60.1562 30.6337L58.2816 31.7275V33.9106L60.1562 35L62.0309 33.9106V31.7275L60.1562 30.6337ZM33.7006 39.3706C33.4734 39.3693 33.2496 39.4266 33.0509 39.5369L26.8997 43.0938C26.7017 43.206 26.5372 43.3689 26.423 43.5657C26.3089 43.7625 26.2491 43.9862 26.25 44.2137V51.3144C26.25 51.7716 26.5059 52.2025 26.8997 52.4344L28.5184 53.3575C29.295 53.7403 29.5816 53.7403 29.9338 53.7403C31.0931 53.7403 31.7537 53.0469 31.7537 51.8219V44.8066C31.7543 44.7826 31.7501 44.7588 31.7414 44.7366C31.7326 44.7143 31.7195 44.694 31.7028 44.6769C31.6861 44.6598 31.6661 44.6462 31.644 44.6369C31.622 44.6276 31.5983 44.6228 31.5744 44.6228H30.7956C30.7469 44.6228 30.7002 44.6422 30.6657 44.6766C30.6312 44.7111 30.6119 44.7578 30.6119 44.8066V51.8219C30.6119 52.3534 30.0497 52.9003 29.1331 52.4431L27.4488 51.4719C27.4213 51.4546 27.3985 51.4307 27.3825 51.4025C27.3664 51.3742 27.3576 51.3425 27.3569 51.31V44.2094C27.3569 44.1459 27.3875 44.0716 27.4509 44.0387L33.6022 40.4928C33.6317 40.4765 33.6648 40.468 33.6984 40.468C33.7321 40.468 33.7652 40.4765 33.7947 40.4928L39.9525 44.0366C40.0159 44.0716 40.0466 44.135 40.0466 44.2094V51.31C40.0464 51.344 40.0377 51.3775 40.0213 51.4073C40.0049 51.4371 39.9812 51.4623 39.9525 51.4806L33.7947 55.0397C33.7652 55.056 33.7321 55.0645 33.6984 55.0645C33.6648 55.0645 33.6317 55.056 33.6022 55.0397L32.0316 54.1034C31.9878 54.0816 31.9222 54.0706 31.8806 54.0925C31.5928 54.277 31.2806 54.4206 30.9531 54.5191C30.8459 54.5519 30.7016 54.6175 31.01 54.7881L33.0509 56.0022C33.2505 56.1108 33.4734 56.1693 33.7006 56.1728C33.927 56.1751 34.1493 56.1129 34.3416 55.9934L40.495 52.4344C40.693 52.3222 40.8575 52.1593 40.9716 51.9624C41.0858 51.7656 41.1455 51.5419 41.1447 51.3144V44.2137C41.1418 43.987 41.0805 43.7647 40.9667 43.5686C40.8529 43.3724 40.6904 43.2088 40.495 43.0938L34.3416 39.5391C34.1462 39.4283 33.9252 39.3709 33.7006 39.3728V39.3706ZM43.2972 42.6475C43.1421 42.6478 42.9885 42.6786 42.8453 42.7383C42.7021 42.7979 42.572 42.8851 42.4626 42.995C42.2414 43.217 42.1175 43.5177 42.1181 43.8309C42.1187 44.1442 42.2437 44.4445 42.4656 44.6656C42.6876 44.8867 42.9883 45.0106 43.3016 45.01C43.6148 45.0094 43.9151 44.8844 44.1362 44.6625C44.3573 44.4405 44.4812 44.1398 44.4806 43.8266C44.48 43.5133 44.355 43.2131 44.1331 42.9919C43.9112 42.7708 43.6105 42.6469 43.2972 42.6475ZM43.2841 42.8356C43.8397 42.8356 44.2903 43.2731 44.2903 43.8266C44.2864 44.0922 44.1791 44.3459 43.9912 44.5337C43.8034 44.7216 43.5497 44.8289 43.2841 44.8328C43.0199 44.8299 42.7676 44.7224 42.5827 44.5337C42.3977 44.3451 42.2952 44.0907 42.2975 43.8266C42.2966 43.6966 42.3215 43.5677 42.3707 43.4473C42.42 43.327 42.4925 43.2176 42.5843 43.1255C42.676 43.0333 42.785 42.9603 42.9052 42.9105C43.0253 42.8608 43.1541 42.8353 43.2841 42.8356ZM42.8531 43.1572V44.485H43.1047V43.9556H43.3409C43.4372 43.9556 43.4591 43.995 43.4809 44.0694C43.4809 44.0803 43.5203 44.4259 43.5312 44.4894H43.8047C43.77 44.3741 43.7487 44.2552 43.7412 44.135C43.7106 43.9644 43.7019 43.8462 43.5203 43.8353C43.6166 43.8025 43.7762 43.7522 43.7762 43.5072C43.7762 43.155 43.47 43.1572 43.3103 43.1572H42.8509H42.8531ZM43.1047 43.3694H43.3191C43.3847 43.3694 43.5116 43.3694 43.5116 43.5488C43.5116 43.6231 43.4788 43.7456 43.3059 43.7413H43.1047V43.3694ZM35.35 44.4544C33.5934 44.4544 32.55 45.2047 32.55 46.4384C32.55 47.7903 33.5956 48.1513 35.2778 48.3197C37.2903 48.5231 37.4478 48.8119 37.4478 49.2056C37.4478 49.8969 36.8922 50.1834 35.5928 50.1834C33.9631 50.1834 33.6066 49.7809 33.4884 48.9716C33.4775 48.8841 33.4009 48.8206 33.3047 48.8206H32.5041C32.4801 48.8206 32.4564 48.8254 32.4344 48.8347C32.4123 48.844 32.3924 48.8576 32.3757 48.8747C32.3589 48.8918 32.3458 48.9121 32.3371 48.9344C32.3283 48.9567 32.3241 48.9805 32.3247 49.0044C32.3247 50.0369 32.8891 51.2728 35.5819 51.2728C37.5572 51.2728 38.675 50.5072 38.675 49.1641C38.675 47.8341 37.7781 47.4797 35.8837 47.2237C33.9675 46.9678 33.7772 46.8388 33.7772 46.3903C33.7772 46.0184 33.9347 45.5306 35.3522 45.5306C36.6166 45.5306 37.0891 45.8084 37.2816 46.6594C37.3034 46.7469 37.3625 46.7972 37.4478 46.7972H38.2463C38.2987 46.7972 38.3447 46.7753 38.3753 46.7447C38.4081 46.7031 38.4278 46.6616 38.4191 46.6091C38.2922 45.1391 37.3209 44.4544 35.35 44.4544Z"
        fill="#181818" />
</svg>