<svg width="53" height="50" viewBox="0 0 53 50" fill="none" xmlns="http://www.w3.org/2000/svg">
<path d="M26.3381 0.78125C12.5783 0.78125 1.42984 11.6211 1.42984 25C1.42984 38.3789 12.5783 49.2188 26.3381 49.2188C40.0979 49.2188 51.2463 38.3789 51.2463 25C51.2463 11.6211 40.0979 0.78125 26.3381 0.78125ZM39.7705 14.7988C38.6185 14.8389 37.822 14.1689 37.7848 13.1514C37.7577 12.2549 38.4558 11.8389 38.4407 11.3105C38.4176 10.6709 37.4203 10.6445 37.1481 10.6592C33.1527 10.7852 32.2679 16.2256 31.2334 21.7773C33.3857 22.085 34.9144 21.707 35.7671 21.1699C36.9723 20.4131 35.4316 19.6348 35.6245 18.7715C36.0262 16.998 38.8937 16.916 38.8384 19.2891C38.8023 21.0332 36.2351 23.3721 31.0445 22.7754C29.9638 28.5879 29.2015 34.0059 25.1991 38.5684C22.2865 41.9336 19.3337 42.457 18.0099 42.5C15.5341 42.583 13.892 41.2979 13.8337 39.5859C13.7775 37.9258 15.2851 37.0215 16.2754 36.9893C18.4739 36.916 19.3005 39.4961 17.7699 40.3096C16.5556 41.2578 17.7809 41.541 17.9757 41.5352C19.0223 41.5 19.7173 40.9971 20.2034 40.6563C22.6139 38.7031 23.5419 35.2988 24.7582 29.0986C25.5808 24.249 26.4656 21.4814 26.5892 21.0908C24.8888 19.8457 23.8694 18.3027 21.5824 17.7002C20.0146 17.2871 19.0595 17.6387 18.3875 18.4648C17.5921 19.4414 17.8562 20.7109 18.6256 21.4629L19.8941 22.8301C21.4519 24.5811 22.3046 25.9424 21.9832 27.7734C21.475 30.6963 17.8934 32.9395 13.659 31.6738C10.0433 30.5889 9.37035 28.1035 9.80424 26.7305C10.5585 24.3721 14.0587 25.5859 13.2813 28.0586C13.0011 28.8984 12.7872 28.9063 12.6506 29.335C12.1926 30.7773 16.8539 32.1084 17.7729 29.1992C18.2218 27.7812 17.2406 27.0791 15.5382 25.3076C12.6787 22.207 13.9312 18.9121 15.8344 17.5273C21.1385 13.6846 25.9303 19.2383 26.9407 20.0479C30.6739 9.40332 37.0376 9.74902 37.2284 9.74219C39.7554 9.66309 41.6667 10.7764 41.731 12.54C41.7561 13.291 41.3122 14.7461 39.7705 14.7988Z" fill="#EBEAEC"/>
</svg>
