<svg width="53" height="50" viewBox="0 0 53 50" fill="none" xmlns="http://www.w3.org/2000/svg">
<g clip-path="url(#clip0_272_67)">
<path d="M26.652 6.9215e-06C16.5789 -0.0170431 7.09794 5.79061 2.7468 14.9835L14.9814 15.0118V16.3128C11.2141 15.872 11.5458 17.7742 12.0791 19.7931L20.1106 39.3646L26.0138 25.91L23.3038 19.6046C22.3194 17.9157 22.2987 16.0421 18.2716 16.2185L18.3282 15.0196L36.272 15.0621V16.4055C34.1706 16.5254 31.641 15.8918 32.9819 20.076L40.2393 38.612L44.2066 27.7908C45.5057 23.2546 44.283 18.8953 42.7393 14.6205C41.8806 11.7528 42.2811 9.35781 46.1296 8.40776C40.2552 2.57751 33.3239 0.0113069 26.6522 6.9215e-06H26.652ZM51.0565 17.1125L39.4231 46.597C42.6358 43.8915 45.9299 42.9067 49.9609 35.4207C52.6429 29.1941 52.3668 23.4258 51.0565 17.1125V17.1125ZM1.51541 17.5902C0.379928 26.2944 0.483803 28.8438 3.29461 35.9518C6.95853 42.7595 9.79978 44.1938 13.8324 46.8641L1.51536 17.5902H1.51541ZM27.1061 28.6345L18.4849 48.8596C24.5364 50.539 29.9512 50.3288 34.9081 48.4605L27.1061 28.6344V28.6345Z" fill="#EBEAEC"/>
</g>
<defs>
<clipPath id="clip0_272_67">
<rect width="51.1869" height="50" fill="white" transform="translate(0.836304)"/>
</clipPath>
</defs>
</svg>
