<svg width="62" height="50" viewBox="0 0 62 50" fill="none" xmlns="http://www.w3.org/2000/svg">
    <g clip-path="url(#clip0_269_55)">
        <path
            d="M53.9478 -0.0492455C52.2882 -0.0737955 48.4331 0.489605 41.9965 4.79755C38.4884 3.9208 34.7559 3.48815 31.0169 3.48815C26.903 3.48815 22.7457 4.01055 18.8687 5.0741C9.6275 -1.23025 5.54855 0.0617045 5.54855 0.0617045C2.88565 6.72085 4.5312 11.6511 5.03135 12.8756C1.9015 16.2535 -0.00920105 20.5669 -0.00920105 25.8535C-0.00920105 29.8446 0.445049 33.4243 1.55485 36.5362C1.6164 36.7763 1.59645 36.7228 1.70015 36.9284C1.94465 37.5726 2.2165 38.1979 2.52205 38.8018C2.62675 39.0191 2.72205 39.1799 2.72205 39.1799C5.8418 44.9953 11.9918 48.7518 22.9342 49.9313L39.484 49.9501C51.1536 48.7929 56.7533 45.0251 59.3337 39.1705L59.4977 38.7893C59.7422 38.1979 59.9554 37.5825 60.5384 35.5112C61.1213 33.4398 61.3821 29.8526 61.3821 25.8519C61.3821 20.1142 59.2271 15.5231 55.7275 12.0302C56.3391 10.0562 57.1561 5.6723 54.9119 0.0601045C54.9119 0.0601045 54.5972 -0.0395955 53.9478 -0.0492455ZM40.9058 21.0067C43.6004 21.0008 45.9086 21.4635 47.6416 23.2816V23.2832C49.8101 25.5602 51.0791 28.3094 51.0791 31.2721C51.0791 45.105 42.1825 45.4812 31.2091 45.4812C20.2338 45.4812 11.3391 43.5644 11.3391 31.2721C11.3391 28.329 12.5896 25.5963 14.7313 23.3285C18.3038 19.549 24.3495 21.5504 31.2092 21.5504C34.7303 21.5498 38.0372 21.0129 40.9058 21.0067ZM20.4654 25.0801C18.1821 25.0801 16.3311 28.1671 16.3311 31.9769C16.3311 35.7872 18.182 38.8752 20.4654 38.8752C22.7488 38.8752 31.0169 35.7872 31.0169 31.9769C31.0169 28.1677 22.7488 25.0828 20.4654 25.0801ZM42.6479 25.0801C40.3646 25.0801 33.9286 28.1671 33.9286 31.9769C33.9286 35.7872 40.3645 38.8752 42.6479 38.8752C44.9312 38.8752 46.7823 35.7872 46.7823 31.9769C46.7823 28.1677 44.9313 25.0828 42.6479 25.0801Z" />
    </g>
    <defs>
        <clipPath id="clip0_269_55">
            <rect width="61.3929" height="50" />
        </clipPath>
    </defs>
</svg>